<svg xmlns="http://www.w3.org/2000/svg" width="481pt" height="291pt" viewBox="0 0 481 291" version="1.1" xmlns:xlink="http://www.w3.org/1999/xlink">
  <g id="surface2" transform="matrix(1,0,0,1,0,-5)" data-tpl_matrix="1,0,0,1,0,0">
    <path style="stroke:none;fill-rule:evenodd;fill:rgb(0.000000%,35.294118%,60.784314%);fill-opacity:1" d="M 364.699219 133 L 364.699219 129.050781 L 116.300781 129.050781 L 116.300781 133 L 364.699219 133 M 364.699219 181.351562 L 364.699219 177.449219 L 116.300781 177.449219 L 116.300781 181.351562 L 364.699219 181.351562 M 240.5 244.699219 C 227.699219 244.632812 215.535156 242.300781 204 237.699219 C 192.464844 233.066406 182.132812 226.535156 173 218.101562 C 163.867188 209.667969 156.515625 199.699219 150.949219 188.199219 L 330.050781 188.199219 C 324.484375 199.699219 317.132812 209.667969 308 218.101562 C 298.867188 226.535156 288.515625 233.066406 276.949219 237.699219 C 265.417969 242.300781 253.265625 244.632812 240.5 244.699219 "/>
    <path style="stroke:none;fill-rule:evenodd;fill:rgb(0.000000%,44.313725%,70.588235%);fill-opacity:1" d="M 144.050781 122.25 C 144.582031 120.015625 145.148438 117.933594 145.75 116 L 335.25 116 C 335.851562 117.933594 336.417969 120.015625 336.949219 122.25 L 144.050781 122.25 "/>
    <path style="stroke:none;fill-rule:evenodd;fill:rgb(0.000000%,51.372549%,74.901961%);fill-opacity:1" d="M 148.101562 109.25 C 149.234375 106.351562 150.515625 103.5 151.949219 100.699219 L 328.949219 100.699219 C 330.382812 103.5 331.667969 106.351562 332.800781 109.25 L 148.101562 109.25 "/>
    <path style="stroke:none;fill-rule:evenodd;fill:rgb(19.215686%,61.176471%,81.960784%);fill-opacity:1" d="M 155.75 93.898438 C 158.082031 90.101562 160.632812 86.484375 163.398438 83.050781 L 317.601562 83.050781 C 320.367188 86.484375 322.917969 90.101562 325.25 93.898438 L 155.75 93.898438 "/>
    <path style="stroke:none;fill-rule:evenodd;fill:rgb(45.882353%,74.901961%,91.372549%);fill-opacity:1" d="M 169.398438 76.25 C 174.234375 71.316406 179.484375 66.933594 185.148438 63.101562 L 295.75 63.101562 C 301.417969 66.898438 306.667969 71.285156 311.5 76.25 L 169.398438 76.25 "/>
    <path style="stroke:none;fill-rule:evenodd;fill:rgb(61.960784%,82.352941%,94.901961%);fill-opacity:1" d="M 196.949219 56.300781 C 203.714844 53 210.785156 50.5 218.148438 48.800781 C 225.484375 47.101562 232.933594 46.25 240.5 46.25 C 248.035156 46.25 255.484375 47.101562 262.851562 48.800781 C 270.183594 50.5 277.234375 53 284 56.300781 L 196.949219 56.300781 "/>
    <path style="stroke:none;fill-rule:evenodd;fill:rgb(0.000000%,34.901961%,60.392157%);fill-opacity:1" d="M33.789063 0L28.417969 0L19.482422-14.282227L8.764648-14.282227L8.764648 0L4.101563 0L4.101563-34.399414L20.288086-34.399414L20.288086-34.399414Q26.098633-34.399414 29.260254-31.799316L29.260254-31.799316L29.260254-31.799316Q32.421875-29.199219 32.421875-24.560547L32.421875-24.560547L32.421875-24.560547Q32.421875-20.727539 30.187988-18.115234L30.187988-18.115234L30.187988-18.115234Q27.954102-15.502930 24.023438-14.819336L24.023438-14.819336L33.789063 0ZM27.734375-24.511719L27.734375-24.511719L27.734375-24.511719Q27.734375-27.514648 25.695801-29.089355L25.695801-29.089355L25.695801-29.089355Q23.657227-30.664063 19.824219-30.664063L19.824219-30.664063L8.764648-30.664063L8.764648-17.968750L20.019531-17.968750L20.019531-17.968750Q23.706055-17.968750 25.720215-19.689941L25.720215-19.689941L25.720215-19.689941Q27.734375-21.411133 27.734375-24.511719ZM46.215820 0.488281L46.215820 0.488281L46.215820 0.488281Q42.236328 0.488281 40.234375-1.611328L40.234375-1.611328L40.234375-1.611328Q38.232422-3.710938 38.232422-7.373047L38.232422-7.373047L38.232422-7.373047Q38.232422-11.474609 40.930176-13.671875L40.930176-13.671875L40.930176-13.671875Q43.627930-15.869141 49.633789-16.015625L49.633789-16.015625L55.566406-16.113281L55.566406-17.553711L55.566406-17.553711Q55.566406-20.776367 54.199219-22.167969L54.199219-22.167969L54.199219-22.167969Q52.832031-23.559570 49.902344-23.559570L49.902344-23.559570L49.902344-23.559570Q46.948242-23.559570 45.605469-22.558594L45.605469-22.558594L45.605469-22.558594Q44.262695-21.557617 43.994141-19.360352L43.994141-19.360352L39.404297-19.775391L39.404297-19.775391Q40.527344-26.904297 50-26.904297L50-26.904297L50-26.904297Q54.980469-26.904297 57.495117-24.621582L57.495117-24.621582L57.495117-24.621582Q60.009766-22.338867 60.009766-18.017578L60.009766-18.017578L60.009766-6.640625L60.009766-6.640625Q60.009766-4.687500 60.522461-3.698730L60.522461-3.698730L60.522461-3.698730Q61.035156-2.709961 62.475586-2.709961L62.475586-2.709961L62.475586-2.709961Q63.110352-2.709961 63.916016-2.880859L63.916016-2.880859L63.916016-0.146484L63.916016-0.146484Q62.255859 0.244141 60.522461 0.244141L60.522461 0.244141L60.522461 0.244141Q58.081055 0.244141 56.970215-1.037598L56.970215-1.037598L56.970215-1.037598Q55.859375-2.319336 55.712891-5.053711L55.712891-5.053711L55.566406-5.053711L55.566406-5.053711Q53.881836-2.026367 51.647949-0.769043L51.647949-0.769043L51.647949-0.769043Q49.414063 0.488281 46.215820 0.488281ZM47.216797-2.807617L47.216797-2.807617L47.216797-2.807617Q49.633789-2.807617 51.513672-3.906250L51.513672-3.906250L51.513672-3.906250Q53.393555-5.004883 54.479980-6.921387L54.479980-6.921387L54.479980-6.921387Q55.566406-8.837891 55.566406-10.864258L55.566406-10.864258L55.566406-13.037109L50.756836-12.939453L50.756836-12.939453Q47.656250-12.890625 46.057129-12.304688L46.057129-12.304688L46.057129-12.304688Q44.458008-11.718750 43.603516-10.498047L43.603516-10.498047L43.603516-10.498047Q42.749023-9.277344 42.749023-7.299805L42.749023-7.299805L42.749023-7.299805Q42.749023-5.151367 43.908691-3.979492L43.908691-3.979492L43.908691-3.979492Q45.068359-2.807617 47.216797-2.807617ZM84.057617-4.248047L83.959961-4.248047L83.959961-4.248047Q82.739258-1.708984 80.725098-0.610352L80.725098-0.610352L80.725098-0.610352Q78.710938 0.488281 75.732422 0.488281L75.732422 0.488281L75.732422 0.488281Q70.727539 0.488281 68.371582-2.880859L68.371582-2.880859L68.371582-2.880859Q66.015625-6.250000 66.015625-13.085938L66.015625-13.085938L66.015625-13.085938Q66.015625-26.904297 75.732422-26.904297L75.732422-26.904297L75.732422-26.904297Q78.735352-26.904297 80.737305-25.805664L80.737305-25.805664L80.737305-25.805664Q82.739258-24.707031 83.959961-22.314453L83.959961-22.314453L84.008789-22.314453L83.959961-25.268555L83.959961-36.230469L88.354492-36.230469L88.354492-5.444336L88.354492-5.444336Q88.354492-1.318359 88.500977 0L88.500977 0L84.301758 0L84.301758 0Q84.228516-0.390625 84.143066-1.806641L84.143066-1.806641L84.143066-1.806641Q84.057617-3.222656 84.057617-4.248047L84.057617-4.248047ZM70.629883-13.232422L70.629883-13.232422L70.629883-13.232422Q70.629883-7.690430 72.094727-5.297852L72.094727-5.297852L72.094727-5.297852Q73.559570-2.905273 76.855469-2.905273L76.855469-2.905273L76.855469-2.905273Q80.590820-2.905273 82.275391-5.493164L82.275391-5.493164L82.275391-5.493164Q83.959961-8.081055 83.959961-13.525391L83.959961-13.525391L83.959961-13.525391Q83.959961-18.774414 82.275391-21.215820L82.275391-21.215820L82.275391-21.215820Q80.590820-23.657227 76.904297-23.657227L76.904297-23.657227L76.904297-23.657227Q73.583984-23.657227 72.106934-21.203613L72.106934-21.203613L72.106934-21.203613Q70.629883-18.750000 70.629883-13.232422ZM99.462891-32.031250L95.068359-32.031250L95.068359-36.230469L99.462891-36.230469L99.462891-32.031250ZM99.462891 0L95.068359 0L95.068359-26.416016L99.462891-26.416016L99.462891 0ZM112.939453 0.488281L112.939453 0.488281L112.939453 0.488281Q108.959961 0.488281 106.958008-1.611328L106.958008-1.611328L106.958008-1.611328Q104.956055-3.710938 104.956055-7.373047L104.956055-7.373047L104.956055-7.373047Q104.956055-11.474609 107.653809-13.671875L107.653809-13.671875L107.653809-13.671875Q110.351563-15.869141 116.357422-16.015625L116.357422-16.015625L122.290039-16.113281L122.290039-17.553711L122.290039-17.553711Q122.290039-20.776367 120.922852-22.167969L120.922852-22.167969L120.922852-22.167969Q119.555664-23.559570 116.625977-23.559570L116.625977-23.559570L116.625977-23.559570Q113.671875-23.559570 112.329102-22.558594L112.329102-22.558594L112.329102-22.558594Q110.986328-21.557617 110.717773-19.360352L110.717773-19.360352L106.127930-19.775391L106.127930-19.775391Q107.250977-26.904297 116.723633-26.904297L116.723633-26.904297L116.723633-26.904297Q121.704102-26.904297 124.218750-24.621582L124.218750-24.621582L124.218750-24.621582Q126.733398-22.338867 126.733398-18.017578L126.733398-18.017578L126.733398-6.640625L126.733398-6.640625Q126.733398-4.687500 127.246094-3.698730L127.246094-3.698730L127.246094-3.698730Q127.758789-2.709961 129.199219-2.709961L129.199219-2.709961L129.199219-2.709961Q129.833984-2.709961 130.639648-2.880859L130.639648-2.880859L130.639648-0.146484L130.639648-0.146484Q128.979492 0.244141 127.246094 0.244141L127.246094 0.244141L127.246094 0.244141Q124.804688 0.244141 123.693848-1.037598L123.693848-1.037598L123.693848-1.037598Q122.583008-2.319336 122.436523-5.053711L122.436523-5.053711L122.290039-5.053711L122.290039-5.053711Q120.605469-2.026367 118.371582-0.769043L118.371582-0.769043L118.371582-0.769043Q116.137695 0.488281 112.939453 0.488281ZM113.940430-2.807617L113.940430-2.807617L113.940430-2.807617Q116.357422-2.807617 118.237305-3.906250L118.237305-3.906250L118.237305-3.906250Q120.117188-5.004883 121.203613-6.921387L121.203613-6.921387L121.203613-6.921387Q122.290039-8.837891 122.290039-10.864258L122.290039-10.864258L122.290039-13.037109L117.480469-12.939453L117.480469-12.939453Q114.379883-12.890625 112.780762-12.304688L112.780762-12.304688L112.780762-12.304688Q111.181641-11.718750 110.327148-10.498047L110.327148-10.498047L110.327148-10.498047Q109.472656-9.277344 109.472656-7.299805L109.472656-7.299805L109.472656-7.299805Q109.472656-5.151367 110.632324-3.979492L110.632324-3.979492L110.632324-3.979492Q111.791992-2.807617 113.940430-2.807617ZM150.781250-4.248047L150.683594-4.248047L150.683594-4.248047Q149.462891-1.708984 147.448730-0.610352L147.448730-0.610352L147.448730-0.610352Q145.434570 0.488281 142.456055 0.488281L142.456055 0.488281L142.456055 0.488281Q137.451172 0.488281 135.095215-2.880859L135.095215-2.880859L135.095215-2.880859Q132.739258-6.250000 132.739258-13.085938L132.739258-13.085938L132.739258-13.085938Q132.739258-26.904297 142.456055-26.904297L142.456055-26.904297L142.456055-26.904297Q145.458984-26.904297 147.460938-25.805664L147.460938-25.805664L147.460938-25.805664Q149.462891-24.707031 150.683594-22.314453L150.683594-22.314453L150.732422-22.314453L150.683594-25.268555L150.683594-36.230469L155.078125-36.230469L155.078125-5.444336L155.078125-5.444336Q155.078125-1.318359 155.224609 0L155.224609 0L151.025391 0L151.025391 0Q150.952148-0.390625 150.866699-1.806641L150.866699-1.806641L150.866699-1.806641Q150.781250-3.222656 150.781250-4.248047L150.781250-4.248047ZM137.353516-13.232422L137.353516-13.232422L137.353516-13.232422Q137.353516-7.690430 138.818359-5.297852L138.818359-5.297852L138.818359-5.297852Q140.283203-2.905273 143.579102-2.905273L143.579102-2.905273L143.579102-2.905273Q147.314453-2.905273 148.999023-5.493164L148.999023-5.493164L148.999023-5.493164Q150.683594-8.081055 150.683594-13.525391L150.683594-13.525391L150.683594-13.525391Q150.683594-18.774414 148.999023-21.215820L148.999023-21.215820L148.999023-21.215820Q147.314453-23.657227 143.627930-23.657227L143.627930-23.657227L143.627930-23.657227Q140.307617-23.657227 138.830566-21.203613L138.830566-21.203613L138.830566-21.203613Q137.353516-18.750000 137.353516-13.232422ZM184.155273-13.232422L184.155273-13.232422L184.155273-13.232422Q184.155273-6.298828 181.103516-2.905273L181.103516-2.905273L181.103516-2.905273Q178.051758 0.488281 172.241211 0.488281L172.241211 0.488281L172.241211 0.488281Q166.455078 0.488281 163.500977-3.039551L163.500977-3.039551L163.500977-3.039551Q160.546875-6.567383 160.546875-13.232422L160.546875-13.232422L160.546875-13.232422Q160.546875-26.904297 172.387695-26.904297L172.387695-26.904297L172.387695-26.904297Q178.442383-26.904297 181.298828-23.571777L181.298828-23.571777L181.298828-23.571777Q184.155273-20.239258 184.155273-13.232422ZM179.541016-13.232422L179.541016-13.232422L179.541016-13.232422Q179.541016-18.701172 177.917480-21.179199L177.917480-21.179199L177.917480-21.179199Q176.293945-23.657227 172.460938-23.657227L172.460938-23.657227L172.460938-23.657227Q168.603516-23.657227 166.882324-21.130371L166.882324-21.130371L166.882324-21.130371Q165.161133-18.603516 165.161133-13.232422L165.161133-13.232422L165.161133-13.232422Q165.161133-8.007813 166.857910-5.383301L166.857910-5.383301L166.857910-5.383301Q168.554688-2.758789 172.192383-2.758789L172.192383-2.758789L172.192383-2.758789Q176.147461-2.758789 177.844238-5.297852L177.844238-5.297852L177.844238-5.297852Q179.541016-7.836914 179.541016-13.232422ZM194.116211 0L189.721680 0L189.721680-20.263672L189.721680-20.263672Q189.721680-23.046875 189.575195-26.416016L189.575195-26.416016L193.725586-26.416016L193.725586-26.416016Q193.920898-21.923828 193.920898-21.020508L193.920898-21.020508L194.018555-21.020508L194.018555-21.020508Q195.068359-24.414063 196.435547-25.659180L196.435547-25.659180L196.435547-25.659180Q197.802734-26.904297 200.292969-26.904297L200.292969-26.904297L200.292969-26.904297Q201.171875-26.904297 202.075195-26.660156L202.075195-26.660156L202.075195-22.631836L202.075195-22.631836Q201.196289-22.875977 199.731445-22.875977L199.731445-22.875977L199.731445-22.875977Q196.997070-22.875977 195.556641-20.520020L195.556641-20.520020L195.556641-20.520020Q194.116211-18.164063 194.116211-13.769531L194.116211-13.769531L194.116211 0ZM228.491211-12.280273L209.643555-12.280273L209.643555-12.280273Q209.643555-7.739258 211.523438-5.273438L211.523438-5.273438L211.523438-5.273438Q213.403320-2.807617 217.016602-2.807617L217.016602-2.807617L217.016602-2.807617Q219.873047-2.807617 221.594238-3.955078L221.594238-3.955078L221.594238-3.955078Q223.315430-5.102539 223.925781-6.860352L223.925781-6.860352L227.783203-5.761719L227.783203-5.761719Q225.415039 0.488281 217.016602 0.488281L217.016602 0.488281L217.016602 0.488281Q211.157227 0.488281 208.093262-3.002930L208.093262-3.002930L208.093262-3.002930Q205.029297-6.494141 205.029297-13.378906L205.029297-13.378906L205.029297-13.378906Q205.029297-19.921875 208.093262-23.413086L208.093262-23.413086L208.093262-23.413086Q211.157227-26.904297 216.845703-26.904297L216.845703-26.904297L216.845703-26.904297Q228.491211-26.904297 228.491211-12.866211L228.491211-12.866211L228.491211-12.280273ZM209.692383-15.649414L223.950195-15.649414L223.950195-15.649414Q223.583984-19.824219 221.826172-21.740723L221.826172-21.740723L221.826172-21.740723Q220.068359-23.657227 216.772461-23.657227L216.772461-23.657227L216.772461-23.657227Q213.574219-23.657227 211.706543-21.520996L211.706543-21.520996L211.706543-21.520996Q209.838867-19.384766 209.692383-15.649414L209.692383-15.649414ZM253.906250-7.299805L253.906250-7.299805L253.906250-7.299805Q253.906250-3.564453 251.086426-1.538086L251.086426-1.538086L251.086426-1.538086Q248.266602 0.488281 243.188477 0.488281L243.188477 0.488281L243.188477 0.488281Q238.256836 0.488281 235.583496-1.135254L235.583496-1.135254L235.583496-1.135254Q232.910156-2.758789 232.104492-6.201172L232.104492-6.201172L235.986328-6.958008L235.986328-6.958008Q236.547852-4.833984 238.305664-3.845215L238.305664-3.845215L238.305664-3.845215Q240.063477-2.856445 243.188477-2.856445L243.188477-2.856445L243.188477-2.856445Q246.533203-2.856445 248.083496-3.881836L248.083496-3.881836L248.083496-3.881836Q249.633789-4.907227 249.633789-6.958008L249.633789-6.958008L249.633789-6.958008Q249.633789-8.520508 248.559570-9.497070L248.559570-9.497070L248.559570-9.497070Q247.485352-10.473633 245.092773-11.108398L245.092773-11.108398L241.943359-11.938477L241.943359-11.938477Q238.159180-12.915039 236.560059-13.854980L236.560059-13.854980L236.560059-13.854980Q234.960938-14.794922 234.057617-16.137695L234.057617-16.137695L234.057617-16.137695Q233.154297-17.480469 233.154297-19.433594L233.154297-19.433594L233.154297-19.433594Q233.154297-23.046875 235.729980-24.938965L235.729980-24.938965L235.729980-24.938965Q238.305664-26.831055 243.237305-26.831055L243.237305-26.831055L243.237305-26.831055Q247.607422-26.831055 250.183105-25.292969L250.183105-25.292969L250.183105-25.292969Q252.758789-23.754883 253.442383-20.361328L253.442383-20.361328L249.487305-19.873047L249.487305-19.873047Q249.121094-21.630859 247.521973-22.570801L247.521973-22.570801L247.521973-22.570801Q245.922852-23.510742 243.237305-23.510742L243.237305-23.510742L243.237305-23.510742Q240.258789-23.510742 238.842773-22.607422L238.842773-22.607422L238.842773-22.607422Q237.426758-21.704102 237.426758-19.873047L237.426758-19.873047L237.426758-19.873047Q237.426758-18.750000 238.012695-18.017578L238.012695-18.017578L238.012695-18.017578Q238.598633-17.285156 239.746094-16.772461L239.746094-16.772461L239.746094-16.772461Q240.893555-16.259766 244.580078-15.356445L244.580078-15.356445L244.580078-15.356445Q248.071289-14.477539 249.609375-13.732910L249.609375-13.732910L249.609375-13.732910Q251.147461-12.988281 252.038574-12.084961L252.038574-12.084961L252.038574-12.084961Q252.929688-11.181641 253.417969-9.997559L253.417969-9.997559L253.417969-9.997559Q253.906250-8.813477 253.906250-7.299805ZM289.746094-4.248047L289.648438-4.248047L289.648438-4.248047Q288.427734-1.708984 286.413574-0.610352L286.413574-0.610352L286.413574-0.610352Q284.399414 0.488281 281.420898 0.488281L281.420898 0.488281L281.420898 0.488281Q276.416016 0.488281 274.060059-2.880859L274.060059-2.880859L274.060059-2.880859Q271.704102-6.250000 271.704102-13.085938L271.704102-13.085938L271.704102-13.085938Q271.704102-26.904297 281.420898-26.904297L281.420898-26.904297L281.420898-26.904297Q284.423828-26.904297 286.425781-25.805664L286.425781-25.805664L286.425781-25.805664Q288.427734-24.707031 289.648438-22.314453L289.648438-22.314453L289.697266-22.314453L289.648438-25.268555L289.648438-36.230469L294.042969-36.230469L294.042969-5.444336L294.042969-5.444336Q294.042969-1.318359 294.189453 0L294.189453 0L289.990234 0L289.990234 0Q289.916992-0.390625 289.831543-1.806641L289.831543-1.806641L289.831543-1.806641Q289.746094-3.222656 289.746094-4.248047L289.746094-4.248047ZM276.318359-13.232422L276.318359-13.232422L276.318359-13.232422Q276.318359-7.690430 277.783203-5.297852L277.783203-5.297852L277.783203-5.297852Q279.248047-2.905273 282.543945-2.905273L282.543945-2.905273L282.543945-2.905273Q286.279297-2.905273 287.963867-5.493164L287.963867-5.493164L287.963867-5.493164Q289.648438-8.081055 289.648438-13.525391L289.648438-13.525391L289.648438-13.525391Q289.648438-18.774414 287.963867-21.215820L287.963867-21.215820L287.963867-21.215820Q286.279297-23.657227 282.592773-23.657227L282.592773-23.657227L282.592773-23.657227Q279.272461-23.657227 277.795410-21.203613L277.795410-21.203613L277.795410-21.203613Q276.318359-18.750000 276.318359-13.232422ZM322.998047-12.280273L304.150391-12.280273L304.150391-12.280273Q304.150391-7.739258 306.030273-5.273438L306.030273-5.273438L306.030273-5.273438Q307.910156-2.807617 311.523438-2.807617L311.523438-2.807617L311.523438-2.807617Q314.379883-2.807617 316.101074-3.955078L316.101074-3.955078L316.101074-3.955078Q317.822266-5.102539 318.432617-6.860352L318.432617-6.860352L322.290039-5.761719L322.290039-5.761719Q319.921875 0.488281 311.523438 0.488281L311.523438 0.488281L311.523438 0.488281Q305.664063 0.488281 302.600098-3.002930L302.600098-3.002930L302.600098-3.002930Q299.536133-6.494141 299.536133-13.378906L299.536133-13.378906L299.536133-13.378906Q299.536133-19.921875 302.600098-23.413086L302.600098-23.413086L302.600098-23.413086Q305.664063-26.904297 311.352539-26.904297L311.352539-26.904297L311.352539-26.904297Q322.998047-26.904297 322.998047-12.866211L322.998047-12.866211L322.998047-12.280273ZM304.199219-15.649414L318.457031-15.649414L318.457031-15.649414Q318.090820-19.824219 316.333008-21.740723L316.333008-21.740723L316.333008-21.740723Q314.575195-23.657227 311.279297-23.657227L311.279297-23.657227L311.279297-23.657227Q308.081055-23.657227 306.213379-21.520996L306.213379-21.520996L306.213379-21.520996Q304.345703-19.384766 304.199219-15.649414L304.199219-15.649414ZM372.363281 0L367.602539 0L363.671875-10.058594L347.998047-10.058594L344.042969 0L339.208984 0L353.247070-34.399414L358.544922-34.399414L372.363281 0ZM356.494141-28.857422L355.834961-30.883789L355.615234-30.200195L355.615234-30.200195Q355.004883-28.173828 353.808594-25L353.808594-25L349.414063-13.696289L362.280273-13.696289L357.861328-25.048828L357.861328-25.048828Q357.177734-26.733398 356.494141-28.857422L356.494141-28.857422ZM385.839844 10.375977L385.839844 10.375977L385.839844 10.375977Q381.518555 10.375977 378.955078 8.679199L378.955078 8.679199L378.955078 8.679199Q376.391602 6.982422 375.659180 3.857422L375.659180 3.857422L380.078125 3.222656L380.078125 3.222656Q380.517578 5.053711 382.019043 6.042480L382.019043 6.042480L382.019043 6.042480Q383.520508 7.031250 385.961914 7.031250L385.961914 7.031250L385.961914 7.031250Q392.529297 7.031250 392.529297-0.659180L392.529297-0.659180L392.529297-4.907227L392.480469-4.907227L392.480469-4.907227Q391.235352-2.368164 389.062500-1.086426L389.062500-1.086426L389.062500-1.086426Q386.889648 0.195313 383.984375 0.195313L383.984375 0.195313L383.984375 0.195313Q379.125977 0.195313 376.843262-3.027344L376.843262-3.027344L376.843262-3.027344Q374.560547-6.250000 374.560547-13.159180L374.560547-13.159180L374.560547-13.159180Q374.560547-20.166016 377.014160-23.498535L377.014160-23.498535L377.014160-23.498535Q379.467773-26.831055 384.472656-26.831055L384.472656-26.831055L384.472656-26.831055Q387.280273-26.831055 389.343262-25.549316L389.343262-25.549316L389.343262-25.549316Q391.406250-24.267578 392.529297-21.899414L392.529297-21.899414L392.578125-21.899414L392.578125-21.899414Q392.578125-22.631836 392.675781-24.438477L392.675781-24.438477L392.675781-24.438477Q392.773438-26.245117 392.871094-26.416016L392.871094-26.416016L397.045898-26.416016L397.045898-26.416016Q396.899414-25.097656 396.899414-20.947266L396.899414-20.947266L396.899414-0.756836L396.899414-0.756836Q396.899414 10.375977 385.839844 10.375977ZM392.529297-13.208008L392.529297-13.208008L392.529297-13.208008Q392.529297-16.430664 391.650391-18.762207L391.650391-18.762207L391.650391-18.762207Q390.771484-21.093750 389.172363-22.326660L389.172363-22.326660L389.172363-22.326660Q387.573242-23.559570 385.546875-23.559570L385.546875-23.559570L385.546875-23.559570Q382.177734-23.559570 380.639648-21.118164L380.639648-21.118164L380.639648-21.118164Q379.101563-18.676758 379.101563-13.208008L379.101563-13.208008L379.101563-13.208008Q379.101563-7.788086 380.541992-5.419922L380.541992-5.419922L380.541992-5.419922Q381.982422-3.051758 385.473633-3.051758L385.473633-3.051758L385.473633-3.051758Q387.548828-3.051758 389.160156-4.272461L389.160156-4.272461L389.160156-4.272461Q390.771484-5.493164 391.650391-7.775879L391.650391-7.775879L391.650391-7.775879Q392.529297-10.058594 392.529297-13.208008ZM403.515625-26.416016L407.934570-26.416016L407.934570-9.667969L407.934570-9.667969Q407.934570-7.055664 408.447266-5.615234L408.447266-5.615234L408.447266-5.615234Q408.959961-4.174805 410.083008-3.540039L410.083008-3.540039L410.083008-3.540039Q411.206055-2.905273 413.378906-2.905273L413.378906-2.905273L413.378906-2.905273Q416.552734-2.905273 418.383789-5.078125L418.383789-5.078125L418.383789-5.078125Q420.214844-7.250977 420.214844-11.108398L420.214844-11.108398L420.214844-26.416016L424.609375-26.416016L424.609375-5.639648L424.609375-5.639648Q424.609375-1.025391 424.755859 0L424.755859 0L420.605469 0L420.605469 0Q420.581055-0.122070 420.556641-0.659180L420.556641-0.659180L420.556641-0.659180Q420.532227-1.196289 420.495605-1.892090L420.495605-1.892090L420.495605-1.892090Q420.458984-2.587891 420.410156-4.516602L420.410156-4.516602L420.336914-4.516602L420.336914-4.516602Q418.823242-1.782227 416.833496-0.646973L416.833496-0.646973L416.833496-0.646973Q414.843750 0.488281 411.889648 0.488281L411.889648 0.488281L411.889648 0.488281Q407.543945 0.488281 405.529785-1.672363L405.529785-1.672363L405.529785-1.672363Q403.515625-3.833008 403.515625-8.813477L403.515625-8.813477L403.515625-26.416016ZM438.183594 0.488281L438.183594 0.488281L438.183594 0.488281Q434.204102 0.488281 432.202148-1.611328L432.202148-1.611328L432.202148-1.611328Q430.200195-3.710938 430.200195-7.373047L430.200195-7.373047L430.200195-7.373047Q430.200195-11.474609 432.897949-13.671875L432.897949-13.671875L432.897949-13.671875Q435.595703-15.869141 441.601563-16.015625L441.601563-16.015625L447.534180-16.113281L447.534180-17.553711L447.534180-17.553711Q447.534180-20.776367 446.166992-22.167969L446.166992-22.167969L446.166992-22.167969Q444.799805-23.559570 441.870117-23.559570L441.870117-23.559570L441.870117-23.559570Q438.916016-23.559570 437.573242-22.558594L437.573242-22.558594L437.573242-22.558594Q436.230469-21.557617 435.961914-19.360352L435.961914-19.360352L431.372070-19.775391L431.372070-19.775391Q432.495117-26.904297 441.967773-26.904297L441.967773-26.904297L441.967773-26.904297Q446.948242-26.904297 449.462891-24.621582L449.462891-24.621582L449.462891-24.621582Q451.977539-22.338867 451.977539-18.017578L451.977539-18.017578L451.977539-6.640625L451.977539-6.640625Q451.977539-4.687500 452.490234-3.698730L452.490234-3.698730L452.490234-3.698730Q453.002930-2.709961 454.443359-2.709961L454.443359-2.709961L454.443359-2.709961Q455.078125-2.709961 455.883789-2.880859L455.883789-2.880859L455.883789-0.146484L455.883789-0.146484Q454.223633 0.244141 452.490234 0.244141L452.490234 0.244141L452.490234 0.244141Q450.048828 0.244141 448.937988-1.037598L448.937988-1.037598L448.937988-1.037598Q447.827148-2.319336 447.680664-5.053711L447.680664-5.053711L447.534180-5.053711L447.534180-5.053711Q445.849609-2.026367 443.615723-0.769043L443.615723-0.769043L443.615723-0.769043Q441.381836 0.488281 438.183594 0.488281ZM439.184570-2.807617L439.184570-2.807617L439.184570-2.807617Q441.601563-2.807617 443.481445-3.906250L443.481445-3.906250L443.481445-3.906250Q445.361328-5.004883 446.447754-6.921387L446.447754-6.921387L446.447754-6.921387Q447.534180-8.837891 447.534180-10.864258L447.534180-10.864258L447.534180-13.037109L442.724609-12.939453L442.724609-12.939453Q439.624023-12.890625 438.024902-12.304688L438.024902-12.304688L438.024902-12.304688Q436.425781-11.718750 435.571289-10.498047L435.571289-10.498047L435.571289-10.498047Q434.716797-9.277344 434.716797-7.299805L434.716797-7.299805L434.716797-7.299805Q434.716797-5.151367 435.876465-3.979492L435.876465-3.979492L435.876465-3.979492Q437.036133-2.807617 439.184570-2.807617ZM479.077148-7.299805L479.077148-7.299805L479.077148-7.299805Q479.077148-3.564453 476.257324-1.538086L476.257324-1.538086L476.257324-1.538086Q473.437500 0.488281 468.359375 0.488281L468.359375 0.488281L468.359375 0.488281Q463.427734 0.488281 460.754395-1.135254L460.754395-1.135254L460.754395-1.135254Q458.081055-2.758789 457.275391-6.201172L457.275391-6.201172L461.157227-6.958008L461.157227-6.958008Q461.718750-4.833984 463.476563-3.845215L463.476563-3.845215L463.476563-3.845215Q465.234375-2.856445 468.359375-2.856445L468.359375-2.856445L468.359375-2.856445Q471.704102-2.856445 473.254395-3.881836L473.254395-3.881836L473.254395-3.881836Q474.804688-4.907227 474.804688-6.958008L474.804688-6.958008L474.804688-6.958008Q474.804688-8.520508 473.730469-9.497070L473.730469-9.497070L473.730469-9.497070Q472.656250-10.473633 470.263672-11.108398L470.263672-11.108398L467.114258-11.938477L467.114258-11.938477Q463.330078-12.915039 461.730957-13.854980L461.730957-13.854980L461.730957-13.854980Q460.131836-14.794922 459.228516-16.137695L459.228516-16.137695L459.228516-16.137695Q458.325195-17.480469 458.325195-19.433594L458.325195-19.433594L458.325195-19.433594Q458.325195-23.046875 460.900879-24.938965L460.900879-24.938965L460.900879-24.938965Q463.476563-26.831055 468.408203-26.831055L468.408203-26.831055L468.408203-26.831055Q472.778320-26.831055 475.354004-25.292969L475.354004-25.292969L475.354004-25.292969Q477.929688-23.754883 478.613281-20.361328L478.613281-20.361328L474.658203-19.873047L474.658203-19.873047Q474.291992-21.630859 472.692871-22.570801L472.692871-22.570801L472.692871-22.570801Q471.093750-23.510742 468.408203-23.510742L468.408203-23.510742L468.408203-23.510742Q465.429688-23.510742 464.013672-22.607422L464.013672-22.607422L464.013672-22.607422Q462.597656-21.704102 462.597656-19.873047L462.597656-19.873047L462.597656-19.873047Q462.597656-18.750000 463.183594-18.017578L463.183594-18.017578L463.183594-18.017578Q463.769531-17.285156 464.916992-16.772461L464.916992-16.772461L464.916992-16.772461Q466.064453-16.259766 469.750977-15.356445L469.750977-15.356445L469.750977-15.356445Q473.242188-14.477539 474.780273-13.732910L474.780273-13.732910L474.780273-13.732910Q476.318359-12.988281 477.209473-12.084961L477.209473-12.084961L477.209473-12.084961Q478.100586-11.181641 478.588867-9.997559L478.588867-9.997559L478.588867-9.997559Q479.077148-8.813477 479.077148-7.299805ZM487.597656-13.330078L487.597656-13.330078L487.597656-13.330078Q487.597656-8.056641 489.257813-5.517578L489.257813-5.517578L489.257813-5.517578Q490.917969-2.978516 494.262695-2.978516L494.262695-2.978516L494.262695-2.978516Q496.606445-2.978516 498.181152-4.248047L498.181152-4.248047L498.181152-4.248047Q499.755859-5.517578 500.122070-8.154297L500.122070-8.154297L504.565430-7.861328L504.565430-7.861328Q504.052734-4.052734 501.318359-1.782227L501.318359-1.782227L501.318359-1.782227Q498.583984 0.488281 494.384766 0.488281L494.384766 0.488281L494.384766 0.488281Q488.842773 0.488281 485.925293-3.015137L485.925293-3.015137L485.925293-3.015137Q483.007813-6.518555 483.007813-13.232422L483.007813-13.232422L483.007813-13.232422Q483.007813-19.897461 485.937500-23.400879L485.937500-23.400879L485.937500-23.400879Q488.867188-26.904297 494.335938-26.904297L494.335938-26.904297L494.335938-26.904297Q498.388672-26.904297 501.062012-24.804688L501.062012-24.804688L501.062012-24.804688Q503.735352-22.705078 504.418945-19.018555L504.418945-19.018555L499.902344-18.676758L499.902344-18.676758Q499.560547-20.874023 498.168945-22.167969L498.168945-22.167969L498.168945-22.167969Q496.777344-23.461914 494.213867-23.461914L494.213867-23.461914L494.213867-23.461914Q490.722656-23.461914 489.160156-21.142578L489.160156-21.142578L489.160156-21.142578Q487.597656-18.823242 487.597656-13.330078ZM515.991211 0.488281L515.991211 0.488281L515.991211 0.488281Q512.011719 0.488281 510.009766-1.611328L510.009766-1.611328L510.009766-1.611328Q508.007813-3.710938 508.007813-7.373047L508.007813-7.373047L508.007813-7.373047Q508.007813-11.474609 510.705566-13.671875L510.705566-13.671875L510.705566-13.671875Q513.403320-15.869141 519.409180-16.015625L519.409180-16.015625L525.341797-16.113281L525.341797-17.553711L525.341797-17.553711Q525.341797-20.776367 523.974609-22.167969L523.974609-22.167969L523.974609-22.167969Q522.607422-23.559570 519.677734-23.559570L519.677734-23.559570L519.677734-23.559570Q516.723633-23.559570 515.380859-22.558594L515.380859-22.558594L515.380859-22.558594Q514.038086-21.557617 513.769531-19.360352L513.769531-19.360352L509.179688-19.775391L509.179688-19.775391Q510.302734-26.904297 519.775391-26.904297L519.775391-26.904297L519.775391-26.904297Q524.755859-26.904297 527.270508-24.621582L527.270508-24.621582L527.270508-24.621582Q529.785156-22.338867 529.785156-18.017578L529.785156-18.017578L529.785156-6.640625L529.785156-6.640625Q529.785156-4.687500 530.297852-3.698730L530.297852-3.698730L530.297852-3.698730Q530.810547-2.709961 532.250977-2.709961L532.250977-2.709961L532.250977-2.709961Q532.885742-2.709961 533.691406-2.880859L533.691406-2.880859L533.691406-0.146484L533.691406-0.146484Q532.031250 0.244141 530.297852 0.244141L530.297852 0.244141L530.297852 0.244141Q527.856445 0.244141 526.745605-1.037598L526.745605-1.037598L526.745605-1.037598Q525.634766-2.319336 525.488281-5.053711L525.488281-5.053711L525.341797-5.053711L525.341797-5.053711Q523.657227-2.026367 521.423340-0.769043L521.423340-0.769043L521.423340-0.769043Q519.189453 0.488281 515.991211 0.488281ZM516.992188-2.807617L516.992188-2.807617L516.992188-2.807617Q519.409180-2.807617 521.289063-3.906250L521.289063-3.906250L521.289063-3.906250Q523.168945-5.004883 524.255371-6.921387L524.255371-6.921387L524.255371-6.921387Q525.341797-8.837891 525.341797-10.864258L525.341797-10.864258L525.341797-13.037109L520.532227-12.939453L520.532227-12.939453Q517.431641-12.890625 515.832520-12.304688L515.832520-12.304688L515.832520-12.304688Q514.233398-11.718750 513.378906-10.498047L513.378906-10.498047L513.378906-10.498047Q512.524414-9.277344 512.524414-7.299805L512.524414-7.299805L512.524414-7.299805Q512.524414-5.151367 513.684082-3.979492L513.684082-3.979492L513.684082-3.979492Q514.843750-2.807617 516.992188-2.807617ZM541.455078 0L537.060547 0L537.060547-36.230469L541.455078-36.230469L541.455078 0ZM552.539063-32.031250L548.144531-32.031250L548.144531-36.230469L552.539063-36.230469L552.539063-32.031250ZM552.539063 0L548.144531 0L548.144531-26.416016L552.539063-26.416016L552.539063 0ZM581.494141-12.280273L562.646484-12.280273L562.646484-12.280273Q562.646484-7.739258 564.526367-5.273438L564.526367-5.273438L564.526367-5.273438Q566.406250-2.807617 570.019531-2.807617L570.019531-2.807617L570.019531-2.807617Q572.875977-2.807617 574.597168-3.955078L574.597168-3.955078L574.597168-3.955078Q576.318359-5.102539 576.928711-6.860352L576.928711-6.860352L580.786133-5.761719L580.786133-5.761719Q578.417969 0.488281 570.019531 0.488281L570.019531 0.488281L570.019531 0.488281Q564.160156 0.488281 561.096191-3.002930L561.096191-3.002930L561.096191-3.002930Q558.032227-6.494141 558.032227-13.378906L558.032227-13.378906L558.032227-13.378906Q558.032227-19.921875 561.096191-23.413086L561.096191-23.413086L561.096191-23.413086Q564.160156-26.904297 569.848633-26.904297L569.848633-26.904297L569.848633-26.904297Q581.494141-26.904297 581.494141-12.866211L581.494141-12.866211L581.494141-12.280273ZM562.695313-15.649414L576.953125-15.649414L576.953125-15.649414Q576.586914-19.824219 574.829102-21.740723L574.829102-21.740723L574.829102-21.740723Q573.071289-23.657227 569.775391-23.657227L569.775391-23.657227L569.775391-23.657227Q566.577148-23.657227 564.709473-21.520996L564.709473-21.520996L564.709473-21.520996Q562.841797-19.384766 562.695313-15.649414L562.695313-15.649414ZM608.276367 0L603.857422 0L603.857422-16.748047L603.857422-16.748047Q603.857422-19.360352 603.344727-20.800781L603.344727-20.800781L603.344727-20.800781Q602.832031-22.241211 601.708984-22.875977L601.708984-22.875977L601.708984-22.875977Q600.585938-23.510742 598.413086-23.510742L598.413086-23.510742L598.413086-23.510742Q595.239258-23.510742 593.408203-21.337891L593.408203-21.337891L593.408203-21.337891Q591.577148-19.165039 591.577148-15.307617L591.577148-15.307617L591.577148 0L587.182617 0L587.182617-20.776367L587.182617-20.776367Q587.182617-25.390625 587.036133-26.416016L587.036133-26.416016L591.186523-26.416016L591.186523-26.416016Q591.210938-26.293945 591.235352-25.756836L591.235352-25.756836L591.235352-25.756836Q591.259766-25.219727 591.296387-24.523926L591.296387-24.523926L591.296387-24.523926Q591.333008-23.828125 591.381836-21.899414L591.381836-21.899414L591.455078-21.899414L591.455078-21.899414Q592.968750-24.633789 594.958496-25.769043L594.958496-25.769043L594.958496-25.769043Q596.948242-26.904297 599.902344-26.904297L599.902344-26.904297L599.902344-26.904297Q604.248047-26.904297 606.262207-24.743652L606.262207-24.743652L606.262207-24.743652Q608.276367-22.583008 608.276367-17.602539L608.276367-17.602539L608.276367 0ZM625.048828-3.442383L625.048828-0.195313L625.048828-0.195313Q622.875977 0.390625 620.605469 0.390625L620.605469 0.390625L620.605469 0.390625Q615.332031 0.390625 615.332031-5.590820L615.332031-5.590820L615.332031-23.217773L612.280273-23.217773L612.280273-26.416016L615.502930-26.416016L616.796875-32.324219L619.726563-32.324219L619.726563-26.416016L624.609375-26.416016L624.609375-23.217773L619.726563-23.217773L619.726563-6.542969L619.726563-6.542969Q619.726563-4.638672 620.349121-3.869629L620.349121-3.869629L620.349121-3.869629Q620.971680-3.100586 622.509766-3.100586L622.509766-3.100586L622.509766-3.100586Q623.388672-3.100586 625.048828-3.442383L625.048828-3.442383ZM651.000977-12.280273L632.153320-12.280273L632.153320-12.280273Q632.153320-7.739258 634.033203-5.273438L634.033203-5.273438L634.033203-5.273438Q635.913086-2.807617 639.526367-2.807617L639.526367-2.807617L639.526367-2.807617Q642.382813-2.807617 644.104004-3.955078L644.104004-3.955078L644.104004-3.955078Q645.825195-5.102539 646.435547-6.860352L646.435547-6.860352L650.292969-5.761719L650.292969-5.761719Q647.924805 0.488281 639.526367 0.488281L639.526367 0.488281L639.526367 0.488281Q633.666992 0.488281 630.603027-3.002930L630.603027-3.002930L630.603027-3.002930Q627.539063-6.494141 627.539063-13.378906L627.539063-13.378906L627.539063-13.378906Q627.539063-19.921875 630.603027-23.413086L630.603027-23.413086L630.603027-23.413086Q633.666992-26.904297 639.355469-26.904297L639.355469-26.904297L639.355469-26.904297Q651.000977-26.904297 651.000977-12.866211L651.000977-12.866211L651.000977-12.280273ZM632.202148-15.649414L646.459961-15.649414L646.459961-15.649414Q646.093750-19.824219 644.335938-21.740723L644.335938-21.740723L644.335938-21.740723Q642.578125-23.657227 639.282227-23.657227L639.282227-23.657227L639.282227-23.657227Q636.083984-23.657227 634.216309-21.520996L634.216309-21.520996L634.216309-21.520996Q632.348633-19.384766 632.202148-15.649414L632.202148-15.649414ZM676.416016-7.299805L676.416016-7.299805L676.416016-7.299805Q676.416016-3.564453 673.596191-1.538086L673.596191-1.538086L673.596191-1.538086Q670.776367 0.488281 665.698242 0.488281L665.698242 0.488281L665.698242 0.488281Q660.766602 0.488281 658.093262-1.135254L658.093262-1.135254L658.093262-1.135254Q655.419922-2.758789 654.614258-6.201172L654.614258-6.201172L658.496094-6.958008L658.496094-6.958008Q659.057617-4.833984 660.815430-3.845215L660.815430-3.845215L660.815430-3.845215Q662.573242-2.856445 665.698242-2.856445L665.698242-2.856445L665.698242-2.856445Q669.042969-2.856445 670.593262-3.881836L670.593262-3.881836L670.593262-3.881836Q672.143555-4.907227 672.143555-6.958008L672.143555-6.958008L672.143555-6.958008Q672.143555-8.520508 671.069336-9.497070L671.069336-9.497070L671.069336-9.497070Q669.995117-10.473633 667.602539-11.108398L667.602539-11.108398L664.453125-11.938477L664.453125-11.938477Q660.668945-12.915039 659.069824-13.854980L659.069824-13.854980L659.069824-13.854980Q657.470703-14.794922 656.567383-16.137695L656.567383-16.137695L656.567383-16.137695Q655.664063-17.480469 655.664063-19.433594L655.664063-19.433594L655.664063-19.433594Q655.664063-23.046875 658.239746-24.938965L658.239746-24.938965L658.239746-24.938965Q660.815430-26.831055 665.747070-26.831055L665.747070-26.831055L665.747070-26.831055Q670.117188-26.831055 672.692871-25.292969L672.692871-25.292969L672.692871-25.292969Q675.268555-23.754883 675.952148-20.361328L675.952148-20.361328L671.997070-19.873047L671.997070-19.873047Q671.630859-21.630859 670.031738-22.570801L670.031738-22.570801L670.031738-22.570801Q668.432617-23.510742 665.747070-23.510742L665.747070-23.510742L665.747070-23.510742Q662.768555-23.510742 661.352539-22.607422L661.352539-22.607422L661.352539-22.607422Q659.936523-21.704102 659.936523-19.873047L659.936523-19.873047L659.936523-19.873047Q659.936523-18.750000 660.522461-18.017578L660.522461-18.017578L660.522461-18.017578Q661.108398-17.285156 662.255859-16.772461L662.255859-16.772461L662.255859-16.772461Q663.403320-16.259766 667.089844-15.356445L667.089844-15.356445L667.089844-15.356445Q670.581055-14.477539 672.119141-13.732910L672.119141-13.732910L672.119141-13.732910Q673.657227-12.988281 674.548340-12.084961L674.548340-12.084961L674.548340-12.084961Q675.439453-11.181641 675.927734-9.997559L675.927734-9.997559L675.927734-9.997559Q676.416016-8.813477 676.416016-7.299805Z" transform="matrix(0.4997661414248966,0,0,0.4997661414248966,70.07951191553516,160.99695983852365)" data-str-tmatrix="1,0,0,1,26.55,172.35" data-str-color="rgb(0,89,154)" data-str-text="Radiadores de Aguascalientes" data-str-default_text="Enter Text" data-str-fontsize="50" data-str-font_family="Arimo" data-str-hastextedit="true" data-str-fonticons="true" data-str-bold="false" data-str-italic="false" data-str-data="" data-str-letter_spacing="0" data-str-use_path="false" data-str-txt_dy="0" data-lyt_name="line_1"/>
  </g>
  <g id="surface4">
  </g>
</svg>